name C:\Users\u0150099\Documents\master_thesis\3dpredictsim\Results\debug\Fal_s1_mtp_sd_oldPoly_MTPp_k17_d05_ig21.mot
datacolumns 126
datarows 4
range 1.59063380 1.62244648
endheader
time	pelvis_tilt	pelvis_list	pelvis_rotation	pelvis_tx	pelvis_ty	pelvis_tz	hip_flexion_l	hip_adduction_l	hip_rotation_l	hip_flexion_r	hip_adduction_r	hip_rotation_r	knee_angle_l	knee_angle_r	ankle_angle_l	ankle_angle_r	subtalar_angle_l	subtalar_angle_r	mtj_angle_l	mtj_angle_r	mtp_angle_l	mtp_angle_r	lumbar_extension	lumbar_bending	lumbar_rotation	arm_flex_l	arm_add_l	arm_rot_l	arm_flex_r	arm_add_r	arm_rot_r	elbow_flex_l	elbow_flex_r	glut_med1_l/activation	glut_med2_l/activation	glut_med3_l/activation	glut_min1_l/activation	glut_min2_l/activation	glut_min3_l/activation	semimem_l/activation	semiten_l/activation	bifemlh_l/activation	bifemsh_l/activation	sar_l/activation	add_long_l/activation	add_brev_l/activation	add_mag1_l/activation	add_mag2_l/activation	add_mag3_l/activation	tfl_l/activation	pect_l/activation	grac_l/activation	glut_max1_l/activation	glut_max2_l/activation	glut_max3_l/activation	iliacus_l/activation	psoas_l/activation	quad_fem_l/activation	gem_l/activation	peri_l/activation	rect_fem_l/activation	vas_med_l/activation	vas_int_l/activation	vas_lat_l/activation	med_gas_l/activation	lat_gas_l/activation	soleus_l/activation	tib_post_l/activation	flex_dig_l/activation	flex_hal_l/activation	tib_ant_l/activation	per_brev_l/activation	per_long_l/activation	per_tert_l/activation	ext_dig_l/activation	ext_hal_l/activation	ercspn_l/activation	intobl_l/activation	extobl_l/activation	glut_med1_r/activation	glut_med2_r/activation	glut_med3_r/activation	glut_min1_r/activation	glut_min2_r/activation	glut_min3_r/activation	semimem_r/activation	semiten_r/activation	bifemlh_r/activation	bifemsh_r/activation	sar_r/activation	add_long_r/activation	add_brev_r/activation	add_mag1_r/activation	add_mag2_r/activation	add_mag3_r/activation	tfl_r/activation	pect_r/activation	grac_r/activation	glut_max1_r/activation	glut_max2_r/activation	glut_max3_r/activation	iliacus_r/activation	psoas_r/activation	quad_fem_r/activation	gem_r/activation	peri_r/activation	rect_fem_r/activation	vas_med_r/activation	vas_int_r/activation	vas_lat_r/activation	med_gas_r/activation	lat_gas_r/activation	soleus_r/activation	tib_post_r/activation	flex_dig_r/activation	flex_hal_r/activation	tib_ant_r/activation	per_brev_r/activation	per_long_r/activation	per_tert_r/activation	ext_dig_r/activation	ext_hal_r/activation	ercspn_r/activation	intobl_r/activation	extobl_r/activation	
          1.59063380	         -2.93017651	          1.75406269	         -4.61655647	          2.11554295	          0.90315476	          0.00414904	         31.01807397	          3.05124528	         -1.08254494	        -18.40826720	         -0.29794523	          7.66345825	        -13.22225848	         -3.66506454	          7.95003084	          3.92025361	         -6.67886007	          8.43242787	         -0.15998250	         14.60938613	         -3.58822217	         -0.59653630	          1.63843784	         -6.52644426	        -13.47201986	          5.80374739	          6.37406789	        -13.61299302	         19.37507836	         22.06187494	         35.30629662	         86.51662706	         86.51662706	          0.05000021	          0.05000068	          0.05000044	          0.05883697	          0.05051693	          0.05000090	          0.06923582	          0.06923571	          0.33197283	          0.05000021	          0.05000023	          0.15151740	          0.17843191	          0.17324305	          0.16447835	          0.12206119	          0.05000022	          0.05003752	          0.14484991	          0.05433755	          0.07706669	          0.10462561	          0.05000013	          0.05000016	          0.14524495	          0.05000201	          0.05000108	          0.05000015	          0.05955016	          0.06184360	          0.05007638	          0.05692706	          0.05000016	          0.06203168	          0.05000041	          0.05000086	          0.05000141	          0.50386103	          0.31353948	          0.18681715	          0.23115202	          0.46711400	          0.20979916	          0.08481993	          0.10340675	          0.10042210	          0.32775214	          0.10431551	          0.07483671	          0.44838753	          0.25935955	          0.13160853	          0.05000055	          0.05000013	          0.05000009	          0.09587329	          0.13275318	          0.05000003	          0.05000005	          0.05000009	          0.05000028	          0.05000022	          0.55541118	          0.05000026	          0.05000032	          0.05069974	          0.05000240	          0.05000055	          0.42764588	          0.72542243	          0.05000016	          0.05000111	          0.05883686	          0.19506624	          0.05000022	          0.05000023	          0.05000024	          0.34039544	          0.46916636	          0.30349372	          0.24696807	          0.36357397	          0.45768919	          0.05000004	          0.05831522	          0.14733479	          0.05000009	          0.05000002	          0.05000010	          0.05000000	          0.05000000	          0.05000001	
          1.60123803	         -2.92781825	          1.93786630	         -4.95697221	          2.13212786	          0.90206076	          0.00386952	         30.50809673	          3.52197239	         -0.97325393	        -18.29285298	         -0.68630470	          7.52469794	        -12.64704110	         -5.66072264	          7.64862789	          3.38907961	         -7.02060831	          9.38598391	         -0.09837473	         15.72319542	         -3.42253639	         -0.85057423	          1.75808411	         -7.33096255	        -13.45375466	          5.50180137	          6.07055959	        -13.55541084	         19.28289581	         21.58888916	         36.69615865	         86.51662706	         86.51662706	          0.07016434	          0.05000041	          0.05000051	          0.05000039	          0.05000035	          0.05000115	          0.05883728	          0.05883713	          0.31595597	          0.05000011	          0.05000025	          0.13337092	          0.20903804	          0.16527461	          0.20026261	          0.14463743	          0.05000130	          0.05581112	          0.12309518	          0.05002029	          0.08422117	          0.10986223	          0.05000009	          0.05000006	          0.23707706	          0.05000033	          0.05000011	          0.05000007	          0.12360489	          0.12411863	          0.10533643	          0.05883670	          0.05287865	          0.05883684	          0.05000003	          0.05000014	          0.05000018	          0.54951725	          0.34542189	          0.18658703	          0.33301978	          0.50859951	          0.33793309	          0.07208062	          0.08787584	          0.08533947	          0.27857430	          0.08864811	          0.06359681	          0.38104321	          0.22040572	          0.11184193	          0.05000051	          0.05000011	          0.05000007	          0.08147385	          0.11281470	          0.06651933	          0.05000020	          0.05000017	          0.05000040	          0.05000031	          0.49659429	          0.05000211	          0.05000024	          0.05000066	          0.05000043	          0.05000032	          0.36341671	          0.69454265	          0.05000003	          0.05000012	          0.05000006	          0.16576887	          0.05000040	          0.05000040	          0.05000036	          0.28927060	          0.39870112	          0.28148022	          0.24878042	          0.38038772	          0.47084204	          0.05000000	          0.06896474	          0.15836332	          0.05000008	          0.05000001	          0.05000005	          0.05000000	          0.05000000	          0.05000001	
          1.61184225	         -2.92130202	          2.11537997	         -5.27673118	          2.14905193	          0.90099452	          0.00356718	         29.92323978	          3.98701593	         -0.82283849	        -18.06559655	         -1.06261896	          7.37624999	        -12.62932408	         -7.86744005	          7.12190863	          2.68428489	         -7.35634521	         10.32504580	         -0.04657080	         16.79938502	         -3.23240445	         -1.10117197	          1.87075977	         -8.16937986	        -13.45016200	          5.38647570	          5.66450920	        -13.50989390	         19.14122448	         21.15646400	         38.13210627	         86.51662706	         86.51662706	          0.05962620	          0.05000012	          0.05000009	          0.05000025	          0.05000021	          0.05000006	          0.05000037	          0.05000028	          0.27069716	          0.05000022	          0.05000073	          0.11333980	          0.17764269	          0.35554099	          0.24804571	          0.12394836	          0.05000006	          0.05000234	          0.10460761	          0.05725924	          0.09840717	          0.15727677	          0.05000027	          0.05063832	          0.55304859	          0.17808362	          0.09364383	          0.06923552	          0.20154330	          0.20254126	          0.16923707	          0.05000000	          0.05000000	          0.05000000	          0.05718063	          0.05042958	          0.05000161	          0.62364880	          0.37179358	          0.19954520	          0.45914697	          0.53463916	          0.28717911	          0.06125466	          0.07467755	          0.07252213	          0.23673457	          0.07533384	          0.05404510	          0.32381343	          0.18730245	          0.09504413	          0.05000130	          0.05000015	          0.05000013	          0.06923709	          0.09587082	          0.14095149	          0.14168664	          0.06923576	          0.05005062	          0.05000296	          0.44767594	          0.07497622	          0.05000165	          0.05000160	          0.05000116	          0.05000148	          0.30883426	          0.63108937	          0.05000037	          0.05264273	          0.05883682	          0.14796238	          0.15621541	          0.15621538	          0.15431219	          0.24582432	          0.33881921	          0.23920400	          0.22222241	          0.32325802	          0.41580325	          0.05000001	          0.05860678	          0.13460974	          0.05000004	          0.05000001	          0.05000006	          0.06115539	          0.06923550	          0.05000001	
          1.62244648	         -2.91143395	          2.29603846	         -5.57398220	          2.16624538	          0.89995633	          0.00328101	         29.23251788	          4.37606138	         -0.59827711	        -17.75348793	         -1.43205936	          7.21125067	        -13.12953161	        -10.21355401	          6.56431521	          1.76277749	         -7.70600977	         11.20767037	         -0.11978829	         17.78419371	         -3.02277262	         -1.35688191	          1.97260498	         -9.02380754	        -13.46453626	          5.43214514	          5.17014207	        -13.47321910	         18.97439944	         20.74546324	         39.60578566	         86.51662706	         86.51662706	          0.31832260	          0.05000003	          0.31239283	          0.05000006	          0.05000006	          0.18418465	          0.08712674	          0.05000018	          0.23004052	          0.05000002	          0.05000012	          0.09631709	          0.31472221	          0.30214152	          0.22504506	          0.17359594	          0.05000016	          0.07087969	          0.16912984	          0.05000005	          0.12948588	          0.14773759	          0.05000025	          0.05000009	          0.46998487	          0.15133683	          0.14731979	          0.05883687	          0.17127305	          0.17212113	          0.14381896	          0.05883686	          0.05883688	          0.05883685	          0.05883684	          0.05883638	          0.05883655	          0.53156124	          0.33191352	          0.16957505	          0.41114386	          0.56847885	          0.24404699	          0.05205470	          0.07710869	          0.06162985	          0.32206533	          0.06401927	          0.05000005	          0.27517924	          0.15917105	          0.08076922	          0.05000073	          0.05000025	          0.05000023	          0.05883821	          0.08147179	          0.17268376	          0.24420134	          0.05883789	          0.05883533	          0.05883727	          0.48537831	          0.07123782	          0.05000084	          0.05000253	          0.05000201	          0.05000265	          0.26244969	          0.58943489	          0.05000027	          0.05000032	          0.05000003	          0.12573955	          0.13275326	          0.13275322	          0.13113589	          0.20890336	          0.28793111	          0.20327736	          0.18884631	          0.27470723	          0.35335287	          0.05000000	          0.05000037	          0.17520223	          0.05000003	          0.05000000	          0.05000004	          0.07286115	          0.05883685	          0.05000007	
